# xmcd
#
# Track frame offsets:
#	150
#	14233
#	23534
#	34505
#	42958
#	56391
#	68947
#	78613
#	89504
#	99077
#	109727
#	120305
#	133106
#	142492
#	154963
#	175156
#	187761
#	199411
#	210734
#	223563
#	241319
#	251749
#	267630
#	282346
#	292485
#	303471
#	314795
#	324532
#	333481
#	345430
#
# Disc length: 4767 seconds
#
# Revision: 0
# Processed by: cddbd v1.5.2PL0 Copyright (c) Steve Scherf et al.
# Submitted via: EasyCDDAExtractor 8.2.3.1
#
DISCID=d6129d1e
DTITLE=ELVIS PRESLEY - The King Of Rock'n'Roll  CD-5
DYEAR=2005
DGENRE=Blues
TTITLE0=Are You Lonesome Tonight
TTITLE1=Wooden Heart
TTITLE2=Flaming Star
TTITLE3=Surrender
TTITLE4=Can't Help Falling in Love
TTITLE5=Kiss Me Quick
TTITLE6=His Latest Flame
TTITLE7=Good Luck Charm
TTITLE8=Return to Sender
TTITLE9=(You're the) Devil in Disguise
TTITLE10=Viva Las Vegas
TTITLE11=Love Letters
TTITLE12=Guitar Man
TTITLE13=In the Ghetto
TTITLE14=Suspicious Minds
TTITLE15=Don't Cry Daddy
TTITLE16=The Wonder of You
TTITLE17=You Don't Have to Say You Love Me
TTITLE18=Burning Love
TTITLE19=My Way
TTITLE20=Stuck on You
TTITLE21=Fever
TTITLE22=It's Now Or Never
TTITLE23=I Gotta Know
TTITLE24=Crying in the Chapel
TTITLE25=Little Sister
TTITLE26=She's Not You
TTITLE27=Make Me Know It
TTITLE28=Like a Baby
TTITLE29=I Want You, I Need You, I Love You (2)
EXTD=
EXTT0=
EXTT1=
EXTT2=
EXTT3=
EXTT4=
EXTT5=
EXTT6=
EXTT7=
EXTT8=
EXTT9=
EXTT10=
EXTT11=
EXTT12=
EXTT13=
EXTT14=
EXTT15=
EXTT16=
EXTT17=
EXTT18=
EXTT19=
EXTT20=
EXTT21=
EXTT22=
EXTT23=
EXTT24=
EXTT25=
EXTT26=
EXTT27=
EXTT28=
EXTT29=
PLAYORDER=
